<mxfile host="app.diagrams.net" modified="2023-01-30T06:58:26.765Z" agent="5.0 (Windows NT 10.0; Win64; x64) AppleWebKit/537.36 (KHTML, like Gecko) Chrome/109.0.0.0 Safari/537.36" etag="rsvTlf16dk5WHwCAuJYb" version="20.8.5" type="github">
  <diagram id="4CkGqGROkOYkiGn0mqmw" name="第 1 页">
    <mxGraphModel dx="2736" dy="2167" grid="1" gridSize="10" guides="1" tooltips="1" connect="1" arrows="1" fold="1" page="1" pageScale="1" pageWidth="827" pageHeight="1169" math="0" shadow="0">
      <root>
        <mxCell id="0" />
        <mxCell id="1" parent="0" />
        <mxCell id="QJwFhxlb9CCWF9uIUGmf-6" value="" style="edgeStyle=orthogonalEdgeStyle;rounded=0;orthogonalLoop=1;jettySize=auto;html=1;fontSize=18;" parent="1" source="QJwFhxlb9CCWF9uIUGmf-1" edge="1">
          <mxGeometry relative="1" as="geometry">
            <mxPoint x="440" y="100" as="targetPoint" />
          </mxGeometry>
        </mxCell>
        <mxCell id="QJwFhxlb9CCWF9uIUGmf-13" value="" style="edgeStyle=orthogonalEdgeStyle;rounded=0;orthogonalLoop=1;jettySize=auto;html=1;fontSize=18;" parent="1" source="QJwFhxlb9CCWF9uIUGmf-1" target="QJwFhxlb9CCWF9uIUGmf-12" edge="1">
          <mxGeometry relative="1" as="geometry" />
        </mxCell>
        <mxCell id="QJwFhxlb9CCWF9uIUGmf-1" value="html前端页面" style="rounded=0;whiteSpace=wrap;html=1;fontSize=18;" parent="1" vertex="1">
          <mxGeometry x="380" y="120" width="120" height="60" as="geometry" />
        </mxCell>
        <mxCell id="QJwFhxlb9CCWF9uIUGmf-9" value="" style="edgeStyle=orthogonalEdgeStyle;rounded=0;orthogonalLoop=1;jettySize=auto;html=1;fontSize=18;" parent="1" source="QJwFhxlb9CCWF9uIUGmf-2" target="QJwFhxlb9CCWF9uIUGmf-8" edge="1">
          <mxGeometry relative="1" as="geometry" />
        </mxCell>
        <mxCell id="QJwFhxlb9CCWF9uIUGmf-19" style="edgeStyle=orthogonalEdgeStyle;rounded=0;orthogonalLoop=1;jettySize=auto;html=1;entryX=1;entryY=0.5;entryDx=0;entryDy=0;fontSize=18;" parent="1" source="QJwFhxlb9CCWF9uIUGmf-2" target="QJwFhxlb9CCWF9uIUGmf-12" edge="1">
          <mxGeometry relative="1" as="geometry" />
        </mxCell>
        <mxCell id="QJwFhxlb9CCWF9uIUGmf-2" value="安卓端" style="rounded=0;whiteSpace=wrap;html=1;fontSize=18;" parent="1" vertex="1">
          <mxGeometry x="643" y="240" width="120" height="60" as="geometry" />
        </mxCell>
        <mxCell id="QJwFhxlb9CCWF9uIUGmf-18" style="edgeStyle=orthogonalEdgeStyle;rounded=0;orthogonalLoop=1;jettySize=auto;html=1;entryX=0;entryY=0.5;entryDx=0;entryDy=0;fontSize=18;" parent="1" source="QJwFhxlb9CCWF9uIUGmf-3" target="QJwFhxlb9CCWF9uIUGmf-12" edge="1">
          <mxGeometry relative="1" as="geometry" />
        </mxCell>
        <mxCell id="QJwFhxlb9CCWF9uIUGmf-3" value="IOS端" style="rounded=0;whiteSpace=wrap;html=1;fontSize=18;" parent="1" vertex="1">
          <mxGeometry x="-80" y="130" width="120" height="60" as="geometry" />
        </mxCell>
        <mxCell id="QJwFhxlb9CCWF9uIUGmf-16" value="" style="edgeStyle=orthogonalEdgeStyle;rounded=0;orthogonalLoop=1;jettySize=auto;html=1;fontSize=18;" parent="1" source="QJwFhxlb9CCWF9uIUGmf-4" target="QJwFhxlb9CCWF9uIUGmf-10" edge="1">
          <mxGeometry relative="1" as="geometry" />
        </mxCell>
        <mxCell id="HZH9iFCN66l9v9LUlv62-3" style="edgeStyle=orthogonalEdgeStyle;rounded=0;orthogonalLoop=1;jettySize=auto;html=1;fontSize=18;entryX=0;entryY=0.5;entryDx=0;entryDy=0;" parent="1" source="QJwFhxlb9CCWF9uIUGmf-4" target="HZH9iFCN66l9v9LUlv62-4" edge="1">
          <mxGeometry relative="1" as="geometry">
            <mxPoint x="690" y="750" as="targetPoint" />
            <mxPoint x="680" y="540" as="sourcePoint" />
            <Array as="points">
              <mxPoint x="690" y="540" />
              <mxPoint x="690" y="770" />
            </Array>
          </mxGeometry>
        </mxCell>
        <mxCell id="HZH9iFCN66l9v9LUlv62-7" style="edgeStyle=orthogonalEdgeStyle;rounded=0;orthogonalLoop=1;jettySize=auto;html=1;exitX=-0.002;exitY=0.466;exitDx=0;exitDy=0;exitPerimeter=0;fontSize=18;" parent="1" source="QJwFhxlb9CCWF9uIUGmf-4" edge="1">
          <mxGeometry relative="1" as="geometry">
            <mxPoint x="190" y="800" as="targetPoint" />
          </mxGeometry>
        </mxCell>
        <mxCell id="HZH9iFCN66l9v9LUlv62-12" style="edgeStyle=orthogonalEdgeStyle;rounded=0;orthogonalLoop=1;jettySize=auto;html=1;fontSize=18;" parent="1" source="QJwFhxlb9CCWF9uIUGmf-4" target="HZH9iFCN66l9v9LUlv62-13" edge="1">
          <mxGeometry relative="1" as="geometry">
            <mxPoint x="660" y="990" as="targetPoint" />
          </mxGeometry>
        </mxCell>
        <mxCell id="09B21hlIWlkPLB0oSmz--2" value="" style="edgeStyle=orthogonalEdgeStyle;rounded=0;orthogonalLoop=1;jettySize=auto;html=1;" edge="1" parent="1" source="QJwFhxlb9CCWF9uIUGmf-4" target="09B21hlIWlkPLB0oSmz--1">
          <mxGeometry relative="1" as="geometry" />
        </mxCell>
        <mxCell id="QJwFhxlb9CCWF9uIUGmf-4" value="&lt;font style=&quot;font-size: 18px;&quot;&gt;后端：&lt;br style=&quot;font-size: 18px;&quot;&gt;JAVA基础&lt;br style=&quot;border-color: var(--border-color); font-size: 18px;&quot;&gt;Spring&lt;br style=&quot;border-color: var(--border-color); font-size: 18px;&quot;&gt;Spring mvc&lt;br style=&quot;border-color: var(--border-color); font-size: 18px;&quot;&gt;Spring Boot&lt;br style=&quot;border-color: var(--border-color); font-size: 18px;&quot;&gt;Mybatis&lt;br style=&quot;border-color: var(--border-color); font-size: 18px;&quot;&gt;Spring Cloud&lt;br style=&quot;border-color: var(--border-color); font-size: 18px;&quot;&gt;jvm&lt;/font&gt;" style="whiteSpace=wrap;html=1;aspect=fixed;align=center;fontSize=18;" parent="1" vertex="1">
          <mxGeometry x="310" y="420" width="260" height="260" as="geometry" />
        </mxCell>
        <mxCell id="QJwFhxlb9CCWF9uIUGmf-7" value="HTML&lt;br style=&quot;font-size: 18px;&quot;&gt;VUE&lt;br style=&quot;font-size: 18px;&quot;&gt;REACT&lt;br style=&quot;font-size: 18px;&quot;&gt;JS&lt;br style=&quot;font-size: 18px;&quot;&gt;" style="shape=process;whiteSpace=wrap;html=1;backgroundOutline=1;fontSize=18;" parent="1" vertex="1">
          <mxGeometry x="370" y="-10" width="130" height="110" as="geometry" />
        </mxCell>
        <mxCell id="QJwFhxlb9CCWF9uIUGmf-8" value="JAVA" style="shape=process;whiteSpace=wrap;html=1;backgroundOutline=1;fontSize=18;" parent="1" vertex="1">
          <mxGeometry x="620" y="50" width="120" height="60" as="geometry" />
        </mxCell>
        <mxCell id="QJwFhxlb9CCWF9uIUGmf-10" value="数据库&lt;br&gt;mysql" style="whiteSpace=wrap;html=1;aspect=fixed;fontSize=18;" parent="1" vertex="1">
          <mxGeometry x="130" y="1210" width="270" height="270" as="geometry" />
        </mxCell>
        <mxCell id="QJwFhxlb9CCWF9uIUGmf-14" value="" style="edgeStyle=orthogonalEdgeStyle;rounded=0;orthogonalLoop=1;jettySize=auto;html=1;fontSize=18;" parent="1" source="QJwFhxlb9CCWF9uIUGmf-12" target="QJwFhxlb9CCWF9uIUGmf-4" edge="1">
          <mxGeometry relative="1" as="geometry" />
        </mxCell>
        <mxCell id="QJwFhxlb9CCWF9uIUGmf-12" value="thymleaf&lt;br style=&quot;font-size: 18px;&quot;&gt;json&lt;br style=&quot;font-size: 18px;&quot;&gt;nginx&lt;br style=&quot;font-size: 18px;&quot;&gt;http&lt;br style=&quot;font-size: 18px;&quot;&gt;https&lt;br style=&quot;font-size: 18px;&quot;&gt;tcp/udp" style="shape=process;whiteSpace=wrap;html=1;backgroundOutline=1;fontSize=18;" parent="1" vertex="1">
          <mxGeometry x="350" y="210" width="180" height="150" as="geometry" />
        </mxCell>
        <mxCell id="QJwFhxlb9CCWF9uIUGmf-21" style="edgeStyle=orthogonalEdgeStyle;rounded=0;orthogonalLoop=1;jettySize=auto;html=1;entryX=0.5;entryY=0;entryDx=0;entryDy=0;fontSize=18;" parent="1" source="QJwFhxlb9CCWF9uIUGmf-20" target="QJwFhxlb9CCWF9uIUGmf-4" edge="1">
          <mxGeometry relative="1" as="geometry" />
        </mxCell>
        <mxCell id="QJwFhxlb9CCWF9uIUGmf-20" value="redis" style="whiteSpace=wrap;html=1;aspect=fixed;fontSize=18;" parent="1" vertex="1">
          <mxGeometry x="160" y="340" width="80" height="80" as="geometry" />
        </mxCell>
        <mxCell id="QJwFhxlb9CCWF9uIUGmf-23" style="edgeStyle=orthogonalEdgeStyle;rounded=0;orthogonalLoop=1;jettySize=auto;html=1;entryX=0.5;entryY=0;entryDx=0;entryDy=0;fontSize=18;" parent="1" source="QJwFhxlb9CCWF9uIUGmf-22" target="QJwFhxlb9CCWF9uIUGmf-4" edge="1">
          <mxGeometry relative="1" as="geometry">
            <mxPoint x="540" y="380" as="targetPoint" />
          </mxGeometry>
        </mxCell>
        <mxCell id="QJwFhxlb9CCWF9uIUGmf-22" value="rabbitmq" style="rounded=0;whiteSpace=wrap;html=1;fontSize=18;" parent="1" vertex="1">
          <mxGeometry x="590" y="350" width="120" height="60" as="geometry" />
        </mxCell>
        <mxCell id="QJwFhxlb9CCWF9uIUGmf-25" style="edgeStyle=orthogonalEdgeStyle;rounded=0;orthogonalLoop=1;jettySize=auto;html=1;entryX=1;entryY=0.465;entryDx=0;entryDy=0;entryPerimeter=0;fontSize=18;" parent="1" source="QJwFhxlb9CCWF9uIUGmf-24" target="QJwFhxlb9CCWF9uIUGmf-4" edge="1">
          <mxGeometry relative="1" as="geometry" />
        </mxCell>
        <mxCell id="QJwFhxlb9CCWF9uIUGmf-24" value="算法部署" style="rounded=0;whiteSpace=wrap;html=1;fontSize=18;" parent="1" vertex="1">
          <mxGeometry x="740" y="510" width="133" height="60" as="geometry" />
        </mxCell>
        <mxCell id="QJwFhxlb9CCWF9uIUGmf-30" style="edgeStyle=orthogonalEdgeStyle;rounded=0;orthogonalLoop=1;jettySize=auto;html=1;entryX=-0.002;entryY=0.472;entryDx=0;entryDy=0;entryPerimeter=0;fontSize=18;" parent="1" source="QJwFhxlb9CCWF9uIUGmf-26" target="QJwFhxlb9CCWF9uIUGmf-4" edge="1">
          <mxGeometry relative="1" as="geometry" />
        </mxCell>
        <mxCell id="QJwFhxlb9CCWF9uIUGmf-26" value="硬件数据获取" style="rounded=0;whiteSpace=wrap;html=1;fontSize=18;" parent="1" vertex="1">
          <mxGeometry x="-160" y="430" width="270" height="220" as="geometry" />
        </mxCell>
        <mxCell id="QJwFhxlb9CCWF9uIUGmf-28" style="edgeStyle=orthogonalEdgeStyle;rounded=0;orthogonalLoop=1;jettySize=auto;html=1;fontSize=18;" parent="1" source="QJwFhxlb9CCWF9uIUGmf-27" target="QJwFhxlb9CCWF9uIUGmf-26" edge="1">
          <mxGeometry relative="1" as="geometry" />
        </mxCell>
        <mxCell id="QJwFhxlb9CCWF9uIUGmf-27" value="硬件设备" style="whiteSpace=wrap;html=1;aspect=fixed;fontSize=18;" parent="1" vertex="1">
          <mxGeometry x="-270" y="500" width="80" height="80" as="geometry" />
        </mxCell>
        <mxCell id="QJwFhxlb9CCWF9uIUGmf-29" value="mqtt&lt;br style=&quot;font-size: 18px;&quot;&gt;协议解析&lt;br style=&quot;font-size: 18px;&quot;&gt;反码补码" style="shape=process;whiteSpace=wrap;html=1;backgroundOutline=1;fontSize=18;" parent="1" vertex="1">
          <mxGeometry x="-20" y="445" width="120" height="60" as="geometry" />
        </mxCell>
        <mxCell id="QJwFhxlb9CCWF9uIUGmf-32" style="edgeStyle=orthogonalEdgeStyle;rounded=0;orthogonalLoop=1;jettySize=auto;html=1;fontSize=18;" parent="1" source="QJwFhxlb9CCWF9uIUGmf-31" target="QJwFhxlb9CCWF9uIUGmf-24" edge="1">
          <mxGeometry relative="1" as="geometry" />
        </mxCell>
        <mxCell id="QJwFhxlb9CCWF9uIUGmf-31" value="算法" style="whiteSpace=wrap;html=1;aspect=fixed;fontSize=18;" parent="1" vertex="1">
          <mxGeometry x="930" y="500" width="80" height="80" as="geometry" />
        </mxCell>
        <mxCell id="HZH9iFCN66l9v9LUlv62-1" value="me" style="shape=umlActor;verticalLabelPosition=bottom;verticalAlign=top;html=1;outlineConnect=0;fontSize=18;" parent="1" vertex="1">
          <mxGeometry x="330" y="560" width="30" height="60" as="geometry" />
        </mxCell>
        <mxCell id="HZH9iFCN66l9v9LUlv62-2" value="&lt;br style=&quot;font-size: 18px;&quot;&gt;代码仓库&lt;br style=&quot;font-size: 18px;&quot;&gt;&lt;span style=&quot;white-space: pre; font-size: 18px;&quot;&gt; &lt;/span&gt;gitee&lt;br style=&quot;font-size: 18px;&quot;&gt;&lt;span style=&quot;white-space: pre; font-size: 18px;&quot;&gt; &lt;/span&gt;gitlab&lt;br style=&quot;font-size: 18px;&quot;&gt;&lt;span style=&quot;white-space: pre; font-size: 18px;&quot;&gt; &lt;/span&gt;github" style="whiteSpace=wrap;html=1;aspect=fixed;align=left;fontSize=18;" parent="1" vertex="1">
          <mxGeometry x="1110" y="700" width="110" height="110" as="geometry" />
        </mxCell>
        <mxCell id="HZH9iFCN66l9v9LUlv62-5" style="edgeStyle=orthogonalEdgeStyle;rounded=0;orthogonalLoop=1;jettySize=auto;html=1;entryX=0;entryY=0.5;entryDx=0;entryDy=0;fontSize=18;" parent="1" source="HZH9iFCN66l9v9LUlv62-4" target="HZH9iFCN66l9v9LUlv62-2" edge="1">
          <mxGeometry relative="1" as="geometry" />
        </mxCell>
        <mxCell id="HZH9iFCN66l9v9LUlv62-4" value="git&lt;br style=&quot;font-size: 18px;&quot;&gt;maven" style="rounded=0;whiteSpace=wrap;html=1;fontSize=18;" parent="1" vertex="1">
          <mxGeometry x="860" y="740" width="120" height="60" as="geometry" />
        </mxCell>
        <mxCell id="HZH9iFCN66l9v9LUlv62-6" value="linux&lt;br style=&quot;font-size: 18px;&quot;&gt;windows/ios&lt;br style=&quot;font-size: 18px;&quot;&gt;" style="whiteSpace=wrap;html=1;aspect=fixed;fontSize=18;" parent="1" vertex="1">
          <mxGeometry x="-120" y="775" width="130" height="130" as="geometry" />
        </mxCell>
        <mxCell id="HZH9iFCN66l9v9LUlv62-9" style="edgeStyle=orthogonalEdgeStyle;rounded=0;orthogonalLoop=1;jettySize=auto;html=1;entryX=1;entryY=0.5;entryDx=0;entryDy=0;fontSize=18;" parent="1" source="HZH9iFCN66l9v9LUlv62-8" target="HZH9iFCN66l9v9LUlv62-6" edge="1">
          <mxGeometry relative="1" as="geometry" />
        </mxCell>
        <mxCell id="HZH9iFCN66l9v9LUlv62-8" value="jenkins&lt;br style=&quot;font-size: 18px;&quot;&gt;docker&lt;br style=&quot;font-size: 18px;&quot;&gt;k8s" style="whiteSpace=wrap;html=1;aspect=fixed;fontSize=18;" parent="1" vertex="1">
          <mxGeometry x="130" y="800" width="80" height="80" as="geometry" />
        </mxCell>
        <mxCell id="HZH9iFCN66l9v9LUlv62-11" style="edgeStyle=orthogonalEdgeStyle;rounded=0;orthogonalLoop=1;jettySize=auto;html=1;fontSize=18;" parent="1" source="HZH9iFCN66l9v9LUlv62-10" target="QJwFhxlb9CCWF9uIUGmf-24" edge="1">
          <mxGeometry relative="1" as="geometry" />
        </mxCell>
        <mxCell id="HZH9iFCN66l9v9LUlv62-10" value="算法学习：&lt;br style=&quot;font-size: 18px;&quot;&gt;&lt;span style=&quot;white-space: pre; font-size: 18px;&quot;&gt; &lt;/span&gt;牛客网&lt;br style=&quot;font-size: 18px;&quot;&gt;&lt;span style=&quot;white-space: pre; font-size: 18px;&quot;&gt; &lt;/span&gt;leetcode" style="whiteSpace=wrap;html=1;aspect=fixed;fontSize=18;" parent="1" vertex="1">
          <mxGeometry x="900" y="240" width="120" height="120" as="geometry" />
        </mxCell>
        <mxCell id="HZH9iFCN66l9v9LUlv62-13" value="工具&lt;br&gt;idea&lt;br&gt;eclipse&lt;br&gt;webstrom&lt;br&gt;vscode" style="rounded=0;whiteSpace=wrap;html=1;fontSize=18;" parent="1" vertex="1">
          <mxGeometry x="680" y="1000" width="200" height="140" as="geometry" />
        </mxCell>
        <mxCell id="09B21hlIWlkPLB0oSmz--1" value="&lt;font style=&quot;font-size: 18px;&quot;&gt;monogDB关系型数据库&lt;/font&gt;" style="whiteSpace=wrap;html=1;aspect=fixed;align=center;fontSize=18;" vertex="1" parent="1">
          <mxGeometry x="440" y="1215" width="260" height="260" as="geometry" />
        </mxCell>
      </root>
    </mxGraphModel>
  </diagram>
</mxfile>
